<svg xmlns="http://www.w3.org/2000/svg" xmlns:xlink="http://www.w3.org/1999/xlink" width="500" zoomAndPan="magnify" viewBox="0 0 375 374.999991" height="500" preserveAspectRatio="xMidYMid meet" version="1.0"><defs><g/><clipPath id="77ab54a5e3"><path d="M 235.953125 182.699219 L 258.367188 182.699219 L 258.367188 205.800781 L 235.953125 205.800781 Z M 235.953125 182.699219 " clip-rule="nonzero"/></clipPath><clipPath id="60269d3889"><path d="M 256 187 L 261 187 L 261 192 L 256 192 Z M 256 187 " clip-rule="nonzero"/></clipPath><clipPath id="66516b5e07"><path d="M 257.003906 186.625 L 261.003906 187.902344 L 259.726562 191.902344 L 255.726562 190.625 Z M 257.003906 186.625 " clip-rule="nonzero"/></clipPath><clipPath id="e37c896354"><path d="M 259.003906 187.261719 C 257.898438 186.910156 256.71875 187.519531 256.363281 188.625 C 256.011719 189.730469 256.621094 190.910156 257.726562 191.261719 C 258.832031 191.617188 260.011719 191.007812 260.367188 189.902344 C 260.71875 188.796875 260.109375 187.613281 259.003906 187.261719 Z M 259.003906 187.261719 " clip-rule="nonzero"/></clipPath><clipPath id="575c49842c"><path d="M 237.269531 193 L 248 193 L 248 204 L 237.269531 204 Z M 237.269531 193 " clip-rule="nonzero"/></clipPath><clipPath id="ef13404213"><path d="M 237.269531 187.5 L 256.769531 187.5 L 256.769531 204 L 237.269531 204 Z M 237.269531 187.5 " clip-rule="nonzero"/></clipPath></defs><g fill="#000000" fill-opacity="1"><g transform="translate(75.525855, 205.842809)"><g><path d="M 13.25 0.46875 C 10.925781 0.46875 8.632812 0.203125 6.375 -0.328125 C 4.113281 -0.859375 2.296875 -1.550781 0.921875 -2.40625 L 3.859375 -9.09375 C 5.117188 -8.300781 6.617188 -7.671875 8.359375 -7.203125 C 10.109375 -6.742188 11.84375 -6.515625 13.5625 -6.515625 C 15.132812 -6.515625 16.253906 -6.675781 16.921875 -7 C 17.585938 -7.332031 17.921875 -7.804688 17.921875 -8.421875 C 17.921875 -9.035156 17.519531 -9.472656 16.71875 -9.734375 C 15.914062 -9.992188 14.640625 -10.242188 12.890625 -10.484375 C 10.660156 -10.753906 8.765625 -11.109375 7.203125 -11.546875 C 5.648438 -11.992188 4.304688 -12.816406 3.171875 -14.015625 C 2.046875 -15.210938 1.484375 -16.890625 1.484375 -19.046875 C 1.484375 -20.828125 2.015625 -22.410156 3.078125 -23.796875 C 4.140625 -25.191406 5.6875 -26.289062 7.71875 -27.09375 C 9.757812 -27.894531 12.203125 -28.296875 15.046875 -28.296875 C 17.066406 -28.296875 19.066406 -28.085938 21.046875 -27.671875 C 23.035156 -27.265625 24.703125 -26.6875 26.046875 -25.9375 L 23.109375 -19.3125 C 20.640625 -20.675781 17.96875 -21.359375 15.09375 -21.359375 C 13.550781 -21.359375 12.421875 -21.175781 11.703125 -20.8125 C 10.984375 -20.457031 10.625 -19.988281 10.625 -19.40625 C 10.625 -18.757812 11.019531 -18.304688 11.8125 -18.046875 C 12.601562 -17.796875 13.90625 -17.53125 15.71875 -17.25 C 18.007812 -16.914062 19.90625 -16.523438 21.40625 -16.078125 C 22.914062 -15.628906 24.226562 -14.8125 25.34375 -13.625 C 26.457031 -12.445312 27.015625 -10.800781 27.015625 -8.6875 C 27.015625 -6.9375 26.484375 -5.367188 25.421875 -3.984375 C 24.359375 -2.597656 22.789062 -1.507812 20.71875 -0.71875 C 18.644531 0.0703125 16.15625 0.46875 13.25 0.46875 Z M 13.25 0.46875 "/></g></g></g><g fill="#000000" fill-opacity="1"><g transform="translate(99.716387, 205.842809)"><g><path d="M 22.34375 -1.125 C 21.519531 -0.613281 20.515625 -0.222656 19.328125 0.046875 C 18.148438 0.328125 16.894531 0.46875 15.5625 0.46875 C 11.9375 0.46875 9.144531 -0.421875 7.1875 -2.203125 C 5.238281 -3.984375 4.265625 -6.640625 4.265625 -10.171875 L 4.265625 -19.515625 L 0.203125 -19.515625 L 0.203125 -26.8125 L 4.265625 -26.8125 L 4.265625 -34.046875 L 14.015625 -34.046875 L 14.015625 -26.8125 L 20.390625 -26.8125 L 20.390625 -19.515625 L 14.015625 -19.515625 L 14.015625 -10.265625 C 14.015625 -9.273438 14.28125 -8.5 14.8125 -7.9375 C 15.34375 -7.375 16.054688 -7.09375 16.953125 -7.09375 C 18.078125 -7.09375 19.066406 -7.378906 19.921875 -7.953125 Z M 22.34375 -1.125 "/></g></g></g><g fill="#000000" fill-opacity="1"><g transform="translate(118.770918, 205.842809)"><g><path d="M 12.421875 -24.5 C 13.421875 -25.769531 14.710938 -26.71875 16.296875 -27.34375 C 17.890625 -27.976562 19.71875 -28.296875 21.78125 -28.296875 L 21.78125 -19.515625 C 20.882812 -19.617188 20.144531 -19.671875 19.5625 -19.671875 C 17.476562 -19.671875 15.84375 -19.101562 14.65625 -17.96875 C 13.476562 -16.84375 12.890625 -15.113281 12.890625 -12.78125 L 12.890625 0 L 3.140625 0 L 3.140625 -27.84375 L 12.421875 -27.84375 Z M 12.421875 -24.5 "/></g></g></g><g fill="#000000" fill-opacity="1"><g transform="translate(137.620013, 205.842809)"><g><path d="M 31.59375 -13.859375 C 31.59375 -13.796875 31.539062 -12.992188 31.4375 -11.453125 L 11.203125 -11.453125 C 11.609375 -10.015625 12.398438 -8.910156 13.578125 -8.140625 C 14.765625 -7.367188 16.25 -6.984375 18.03125 -6.984375 C 19.363281 -6.984375 20.515625 -7.171875 21.484375 -7.546875 C 22.460938 -7.921875 23.453125 -8.539062 24.453125 -9.40625 L 29.578125 -4.0625 C 26.878906 -1.039062 22.925781 0.46875 17.71875 0.46875 C 14.46875 0.46875 11.609375 -0.144531 9.140625 -1.375 C 6.671875 -2.613281 4.757812 -4.328125 3.40625 -6.515625 C 2.0625 -8.710938 1.390625 -11.195312 1.390625 -13.96875 C 1.390625 -16.707031 2.046875 -19.160156 3.359375 -21.328125 C 4.679688 -23.503906 6.503906 -25.207031 8.828125 -26.4375 C 11.160156 -27.675781 13.78125 -28.296875 16.6875 -28.296875 C 19.46875 -28.296875 21.984375 -27.722656 24.234375 -26.578125 C 26.492188 -25.429688 28.285156 -23.769531 29.609375 -21.59375 C 30.929688 -19.414062 31.59375 -16.835938 31.59375 -13.859375 Z M 16.75 -21.359375 C 15.238281 -21.359375 13.976562 -20.929688 12.96875 -20.078125 C 11.957031 -19.222656 11.316406 -18.0625 11.046875 -16.59375 L 22.4375 -16.59375 C 22.164062 -18.0625 21.523438 -19.222656 20.515625 -20.078125 C 19.503906 -20.929688 18.25 -21.359375 16.75 -21.359375 Z M 16.75 -21.359375 "/></g></g></g><g fill="#000000" fill-opacity="1"><g transform="translate(166.689738, 205.842809)"><g><path d="M 15 -28.296875 C 19.625 -28.296875 23.148438 -27.242188 25.578125 -25.140625 C 28.003906 -23.035156 29.21875 -19.804688 29.21875 -15.453125 L 29.21875 0 L 20.140625 0 L 20.140625 -3.59375 C 18.734375 -0.882812 15.992188 0.46875 11.921875 0.46875 C 9.765625 0.46875 7.894531 0.09375 6.3125 -0.65625 C 4.738281 -1.414062 3.550781 -2.4375 2.75 -3.71875 C 1.945312 -5.007812 1.546875 -6.472656 1.546875 -8.109375 C 1.546875 -10.742188 2.550781 -12.789062 4.5625 -14.25 C 6.582031 -15.707031 9.703125 -16.4375 13.921875 -16.4375 L 19.46875 -16.4375 C 19.289062 -19.382812 17.320312 -20.859375 13.5625 -20.859375 C 12.226562 -20.859375 10.875 -20.640625 9.5 -20.203125 C 8.132812 -19.773438 6.972656 -19.1875 6.015625 -18.4375 L 2.71875 -25.0625 C 4.257812 -26.09375 6.132812 -26.890625 8.34375 -27.453125 C 10.550781 -28.015625 12.769531 -28.296875 15 -28.296875 Z M 14.640625 -5.703125 C 15.765625 -5.703125 16.753906 -5.972656 17.609375 -6.515625 C 18.472656 -7.066406 19.09375 -7.875 19.46875 -8.9375 L 19.46875 -11.34375 L 15.25 -11.34375 C 12.40625 -11.34375 10.984375 -10.40625 10.984375 -8.53125 C 10.984375 -7.664062 11.304688 -6.976562 11.953125 -6.46875 C 12.609375 -5.957031 13.503906 -5.703125 14.640625 -5.703125 Z M 14.640625 -5.703125 "/></g></g></g><g fill="#000000" fill-opacity="1"><g transform="translate(195.040426, 205.842809)"><g><path d="M 39.390625 -28.296875 C 42.816406 -28.296875 45.546875 -27.269531 47.578125 -25.21875 C 49.617188 -23.164062 50.640625 -20.066406 50.640625 -15.921875 L 50.640625 0 L 40.875 0 L 40.875 -14.328125 C 40.875 -16.273438 40.503906 -17.710938 39.765625 -18.640625 C 39.035156 -19.566406 38.003906 -20.03125 36.671875 -20.03125 C 35.203125 -20.03125 34.019531 -19.515625 33.125 -18.484375 C 32.238281 -17.460938 31.796875 -15.90625 31.796875 -13.8125 L 31.796875 0 L 22.03125 0 L 22.03125 -14.328125 C 22.03125 -18.128906 20.628906 -20.03125 17.828125 -20.03125 C 16.316406 -20.03125 15.113281 -19.515625 14.21875 -18.484375 C 13.332031 -17.460938 12.890625 -15.90625 12.890625 -13.8125 L 12.890625 0 L 3.140625 0 L 3.140625 -27.84375 L 12.421875 -27.84375 L 12.421875 -24.90625 C 13.453125 -26.039062 14.675781 -26.890625 16.09375 -27.453125 C 17.519531 -28.015625 19.070312 -28.296875 20.75 -28.296875 C 22.695312 -28.296875 24.441406 -27.9375 25.984375 -27.21875 C 27.523438 -26.5 28.773438 -25.40625 29.734375 -23.9375 C 30.828125 -25.34375 32.210938 -26.421875 33.890625 -27.171875 C 35.566406 -27.921875 37.398438 -28.296875 39.390625 -28.296875 Z M 39.390625 -28.296875 "/></g></g></g><g fill="#000000" fill-opacity="1"><g transform="translate(244.808197, 205.842809)"><g><path d="M 3.140625 -38.109375 L 12.890625 -38.109375 L 12.890625 0 L 3.140625 0 Z M 3.140625 -38.109375 "/></g></g></g><g fill="#000000" fill-opacity="1"><g transform="translate(256.980497, 205.842809)"><g><path d="M 32.453125 -27.84375 L 20.4375 1.125 C 19.03125 4.550781 17.316406 6.957031 15.296875 8.34375 C 13.285156 9.726562 10.820312 10.421875 7.90625 10.421875 C 6.4375 10.421875 4.957031 10.191406 3.46875 9.734375 C 1.976562 9.273438 0.769531 8.664062 -0.15625 7.90625 L 3.234375 1.078125 C 3.785156 1.585938 4.445312 1.988281 5.21875 2.28125 C 5.988281 2.570312 6.765625 2.71875 7.546875 2.71875 C 8.472656 2.71875 9.234375 2.53125 9.828125 2.15625 C 10.429688 1.78125 10.9375 1.179688 11.34375 0.359375 L -0.5625 -27.84375 L 9.453125 -27.84375 L 16.28125 -10.84375 L 23.15625 -27.84375 Z M 32.453125 -27.84375 "/></g></g></g><g fill="#000000" fill-opacity="1"><g transform="translate(284.920309, 205.842809)"><g><path d="M 7.234375 0.46875 C 5.597656 0.46875 4.210938 -0.078125 3.078125 -1.171875 C 1.953125 -2.273438 1.390625 -3.664062 1.390625 -5.34375 C 1.390625 -7.050781 1.941406 -8.4375 3.046875 -9.5 C 4.160156 -10.5625 5.554688 -11.09375 7.234375 -11.09375 C 8.953125 -11.09375 10.359375 -10.5625 11.453125 -9.5 C 12.546875 -8.4375 13.09375 -7.050781 13.09375 -5.34375 C 13.09375 -3.664062 12.535156 -2.273438 11.421875 -1.171875 C 10.316406 -0.078125 8.921875 0.46875 7.234375 0.46875 Z M 7.234375 0.46875 "/></g></g></g><g clip-path="url(#77ab54a5e3)"><path fill="#000000" d="M 235.953125 182.699219 L 258.367188 182.699219 L 258.367188 205.816406 L 235.953125 205.816406 Z M 235.953125 182.699219 " fill-opacity="1" fill-rule="nonzero"/></g><g clip-path="url(#60269d3889)"><g clip-path="url(#66516b5e07)"><g clip-path="url(#e37c896354)"><path fill="#000000" d="M 257.003906 186.625 L 261.003906 187.902344 L 259.726562 191.902344 L 255.726562 190.625 Z M 257.003906 186.625 " fill-opacity="1" fill-rule="nonzero"/></g></g></g><g clip-path="url(#575c49842c)"><path fill="#ffffff" d="M 237.945312 193.300781 C 237.847656 193.300781 237.746094 193.300781 237.648438 193.308594 C 237.464844 193.3125 237.320312 193.464844 237.320312 193.652344 L 237.320312 194.792969 C 237.320312 194.886719 237.355469 194.976562 237.421875 195.042969 C 237.488281 195.105469 237.570312 195.136719 237.660156 195.136719 C 237.664062 195.136719 237.667969 195.136719 237.667969 195.136719 C 237.761719 195.136719 237.851562 195.132812 237.945312 195.132812 C 240.101562 195.132812 242.171875 195.992188 243.699219 197.527344 C 245.289062 199.128906 246.148438 201.324219 246.074219 203.59375 C 246.070312 203.6875 246.105469 203.777344 246.171875 203.839844 C 246.234375 203.90625 246.324219 203.945312 246.414062 203.945312 L 247.554688 203.945312 C 247.738281 203.945312 247.890625 203.796875 247.894531 203.613281 C 247.976562 200.851562 246.921875 198.183594 244.984375 196.234375 C 243.117188 194.355469 240.585938 193.304688 237.945312 193.304688 Z M 237.945312 196.976562 C 237.835938 196.976562 237.722656 196.980469 237.609375 196.984375 C 237.425781 196.992188 237.28125 197.144531 237.28125 197.332031 L 237.273438 198.484375 C 237.273438 198.582031 237.3125 198.671875 237.382812 198.738281 C 237.449219 198.796875 237.53125 198.828125 237.617188 198.828125 C 237.625 198.828125 237.632812 198.828125 237.640625 198.828125 C 237.746094 198.824219 237.847656 198.820312 237.953125 198.820312 C 239.132812 198.820312 240.269531 199.289062 241.109375 200.132812 C 242.019531 201.050781 242.492188 202.324219 242.402344 203.621094 C 242.398438 203.714844 242.429688 203.808594 242.492188 203.878906 C 242.558594 203.949219 242.648438 203.988281 242.742188 203.988281 L 243.890625 203.984375 C 244.074219 203.984375 244.226562 203.835938 244.234375 203.648438 C 244.332031 201.851562 243.664062 200.101562 242.398438 198.832031 C 241.21875 197.640625 239.613281 196.976562 237.945312 196.976562 Z M 237.878906 200.621094 C 237.777344 200.621094 237.675781 200.628906 237.574219 200.640625 C 237.402344 200.660156 237.269531 200.804688 237.269531 200.984375 L 237.292969 203.625 C 237.292969 203.816406 237.449219 203.96875 237.640625 203.972656 L 240.265625 203.996094 C 240.441406 203.996094 240.585938 203.863281 240.605469 203.6875 C 240.695312 202.851562 240.40625 202.023438 239.816406 201.433594 C 239.300781 200.914062 238.601562 200.625 237.878906 200.625 Z M 237.878906 200.621094 " fill-opacity="1" fill-rule="nonzero"/></g><g clip-path="url(#ef13404213)"><path fill="#ffffff" d="M 255.496094 203.949219 L 248.648438 203.949219 L 248.648438 202.457031 L 255.289062 202.457031 L 255.289062 189 L 238.835938 189 L 238.835938 192.390625 L 237.351562 192.390625 L 237.351562 188.699219 C 237.351562 188.359375 237.507812 188.035156 237.777344 187.808594 C 238.011719 187.613281 238.316406 187.503906 238.632812 187.503906 L 255.496094 187.503906 C 255.8125 187.503906 256.117188 187.613281 256.351562 187.808594 C 256.621094 188.035156 256.777344 188.359375 256.777344 188.699219 L 256.777344 202.753906 C 256.777344 203.09375 256.621094 203.421875 256.351562 203.648438 C 256.117188 203.84375 255.8125 203.949219 255.496094 203.949219 Z M 255.496094 203.949219 " fill-opacity="1" fill-rule="nonzero"/></g><g fill="#000000" fill-opacity="1"><g transform="translate(291.264185, 180.118992)"><g><path d="M 2.5625 -6.34375 L 0.046875 -6.34375 L 0.046875 -8.1875 L 7.375 -8.1875 L 7.375 -6.34375 L 4.875 -6.34375 L 4.875 0 L 2.5625 0 Z M 2.5625 -6.34375 "/></g></g></g><g fill="#000000" fill-opacity="1"><g transform="translate(298.683217, 180.118992)"><g><path d="M 8.203125 0 L 8.1875 -4.34375 L 6.078125 -0.8125 L 5.046875 -0.8125 L 2.953125 -4.21875 L 2.953125 0 L 0.8125 0 L 0.8125 -8.1875 L 2.71875 -8.1875 L 5.59375 -3.453125 L 8.40625 -8.1875 L 10.3125 -8.1875 L 10.328125 0 Z M 8.203125 0 "/></g></g></g></svg>